{"title":"The Lawnmower Man (Director's Cut) [1992]","uid":6547165,"size":2048022953,"categoryP":"video","categoryS":"movies","magnet":"?xt=urn:btih:10062d5e1fb20870ca6a68ed4f5ff46f5887670b&amp;dn=The+Lawnmower+Man+%28Director%5C%27s+Cut%29+%5B1992%5D&amp;tr=udp%3A%2F%2Ftracker.openbittorrent.com%3A80&amp;tr=udp%3A%2F%2Fopen.demonii.com%3A1337&amp;tr=udp%3A%2F%2Ftracker.coppersurfer.tk%3A6969&amp;tr=udp%3A%2F%2Fexodus.desync.com%3A6969","seeders":2,"leechers":0,"uploader":"Armorus","files":1,"time":1310916759,"description":"General\nUnique ID                        : 220850114606362551467841265257377866318 (0xA6262F55398156FCAABB585F3BAEA24E)\nComplete name                    : D:\\DVD\\The Lawnmower Man.mkv\nFormat                           : Matroska\nFile size                        : 1.91 GiB\nDuration                         : 2h 20mn\nOverall bit rate                 : 1 939 Kbps\nEncoded date                     : UTC 2011-07-17 11:40:14\nWriting application              : mkvmerge v2.9.8 ('C'est le bon') built on Aug 13 2009 12:49:06\nWriting library                  : libebml v0.7.7 + libmatroska v0.8.1\n\nVideo\nID                               : 1\nFormat                           : MPEG-4 Visual\nFormat profile                   : Advanced Simple@L5\nFormat settings, BVOP            : Yes\nFormat settings, QPel            : No\nFormat settings, GMC             : No warppoints\nFormat settings, Matrix          : Default (H.263)\nCodec ID                         : XVID\nCodec ID/Hint                    : XviD\nDuration                         : 2h 20mn\nBit rate                         : 1 708 Kbps\nWidth                            : 720 pixels\nHeight                           : 400 pixels\nDisplay aspect ratio             : 16:9\nFrame rate                       : 25.000 fps\nColor space                      : YUV\nChroma subsampling               : 4:2:0\nBit depth                        : 8 bits\nScan type                        : Progressive\nCompression mode                 : Lossy\nBits/(Pixel*Frame)               : 0.237\nStream size                      : 1.68 GiB (88%)\nWriting library                  : XviD 1.2.1 (UTC 2008-12-04)\n\nAudio\nID                               : 2\nFormat                           : AC-3\nFormat/Info                      : Audio Coding 3\nMode extension                   : CM (complete main)\nCodec ID                         : A_AC3\nDuration                         : 2h 20mn\nBit rate mode                    : Constant\nBit rate                         : 192 Kbps\nChannel(s)                       : 2 channels\nChannel positions                : Front: L R\nSampling rate                    : 48.0 KHz\nBit depth                        : 16 bits\nCompression mode                 : Lossy\nStream size                      : 193 MiB (10%)\nLanguage                         : English\n\n","torrent":{"xt":"urn:btih:10062d5e1fb20870ca6a68ed4f5ff46f5887670b","amp;dn":"The+Lawnmower+Man+%28Director%5C%27s+Cut%29+%5B1992%5D","amp;tr":["udp%3A%2F%2Ftracker.openbittorrent.com%3A80","udp%3A%2F%2Fopen.demonii.com%3A1337","udp%3A%2F%2Ftracker.coppersurfer.tk%3A6969","udp%3A%2F%2Fexodus.desync.com%3A6969"],"infoHash":"10062d5e1fb20870ca6a68ed4f5ff46f5887670b","infoHashBuffer":{"type":"Buffer","data":[16,6,45,94,31,178,8,112,202,106,104,237,79,95,244,111,88,135,103,11]},"announce":[],"urlList":[]}}